# xmcd
#
# Track frame offsets:
#	150
#	17875
#	34345
#	56742
#	76912
#	90905
#	104920
#	126185
#	145922
#	161910
#	182102
#
# Disc length: 2680 seconds
#
# Revision: 0
# Processed by: cddbd v1.4PL0 Copyright (c) Steve Scherf et al.
# Submitted via: dBpowerAMP V4.0
#
DISCID=980a760b
DTITLE=Bryan Gerald - Flesh and Blood
DYEAR=2003
DGENRE=Country
TTITLE0=Friends Outta Lovers
TTITLE1=Don't Call us {We'll Call You}
TTITLE2=Mamma's Eyes
TTITLE3=I'll be There
TTITLE4=Not a Young Man
TTITLE5=Man's Best Friend
TTITLE6=Love Will See us Through
TTITLE7=Child of God
TTITLE8=Nickel and Dimin'
TTITLE9=Shine Through
TTITLE10=Reason to Live
EXTD=
EXTT0=
EXTT1=
EXTT2=
EXTT3=
EXTT4=
EXTT5=
EXTT6=
EXTT7=
EXTT8=
EXTT9=
EXTT10=
PLAYORDER=
